# xmcd
#
# Track frame offsets:
#	150
#	21066
#	39837
#	54495
#	81150
#	100925
#	114491
#	133631
#	153429
#	171993
#	194634
#	211848
#	226673
#	239816
#
# Disc length: 3373 seconds
#
# Revision: 2
# Processed by: cddbd v1.5.2PL0 Copyright (c) Steve Scherf et al.
# Submitted via: EasyCDDAExtractor 15.3.0.1
#
DISCID=b60d2b0e
DTITLE=Varios Artistas - Billboard Hot Latin Tracks - The Best Of 2000 - Pop
DYEAR=2001
DGENRE=Latin
TTITLE0=Ricky Martin - She Bangs
TTITLE1=OV7 - Enloqueceme
TTITLE2=Carlos Ponce - Escuchame
TTITLE3=Marc Anthony - Muy Dentro De Mi (You Sang To Me)
TTITLE4=MDO - Te Quise Olvidar
TTITLE5=Luis Miguel - La Bikina
TTITLE6=Ricardo Arjona - Desnuda
TTITLE7=Enrique Iglesias - Nunca Te Olvidare
TTITLE8=Luis Fonsi - Imaginame Sin Ti
TTITLE9=Chayanne - Atado A Tu Amor
TTITLE10=Jaci Velasquez - De Creer En Ti (On My Knees)
TTITLE11=Charlie Zaa - Donde Esta El Amor
TTITLE12=Los Tri~O - Se Va El Amor
TTITLE13=Francisco Cespedes - Donde Esta La Vida
EXTD=
EXTT0=
EXTT1=
EXTT2=
EXTT3=
EXTT4=
EXTT5=
EXTT6=
EXTT7=
EXTT8=
EXTT9=
EXTT10=
EXTT11=
EXTT12=
EXTT13=
PLAYORDER=
